<?xml version="1.0" encoding="UTF-8" standalone="no"?>
<svg
   viewBox="0 0 600 440"
   version="1.1"
   id="svg30"
   xmlns="http://www.w3.org/2000/svg"
   xmlns:svg="http://www.w3.org/2000/svg">
  <defs
     id="defs16">
    <linearGradient
       id="au"
       x1="0"
       y1="0"
       x2="1"
       y2="1">
      <stop
         offset="0"
         stop-color="#F2CE78"
         id="stop2" />
      <stop
         offset="0.5"
         stop-color="#D9A93F"
         id="stop4" />
      <stop
         offset="1"
         stop-color="#A87A28"
         id="stop6" />
    </linearGradient>
    <radialGradient
       id="glow"
       cx="0.5"
       cy="0.44"
       r="0.75">
      <stop
         offset="0"
         stop-color="#2E2760"
         id="stop9" />
      <stop
         offset="0.55"
         stop-color="#1C1740"
         id="stop11" />
      <stop
         offset="1"
         stop-color="#120E2C"
         id="stop13" />
    </radialGradient>
  </defs>
  <rect
     width="600"
     height="440"
     fill="#FFFFFF"
     id="rect18" />
  <path
     d="M230.0 230 L230.0 98.0 Q230.0 78.0 244.0 83.0 L276.0 132.0"
     fill="none"
     stroke="#1A1A1A"
     stroke-width="22.0"
     stroke-linecap="round"
     stroke-linejoin="round"
     id="path20" />
  <path
     d="M370.0 230 L370.0 98.0 Q370.0 78.0 356.0 83.0 L324.0 132.0"
     fill="none"
     stroke="#1A1A1A"
     stroke-width="22.0"
     stroke-linecap="round"
     stroke-linejoin="round"
     id="path22" />
  <path
     d="M300 127.0 L308.05 141.95 L323.0 150.0 L308.05 158.05 L300 173.0 L291.95 158.05 L277.0 150.0 L291.95 141.95 Z"
     fill="#1A1A1A"
     id="path24" />
  <g
     aria-label="MELISSA"
     id="text26"
     style="font-size:62px;font-family:Marcellus;letter-spacing:16;text-anchor:middle;fill:#1a1a1a">
    <path
       d="m 128.00732,341.87891 q 0.33301,-0.48438 0.75684,-1.42286 0.42383,-0.96875 0.66602,-2.42187 0.333,-2.11914 0.72656,-4.75293 0.42383,-2.66406 0.84765,-5.57031 0.45411,-2.90625 0.87793,-5.9336 0.45411,-3.05761 0.84766,-5.99414 0.42383,-2.96679 0.78711,-5.6914 0.39355,-2.75489 0.69629,-5.02539 0.30273,-2.27051 0.48437,-3.93555 0.21192,-1.69531 0.30274,-2.54297 h 3.84472 l 19.042,35.60156 18.89062,-35.60156 h 2.87598 l 4.96484,35.96484 q 0.21192,1.69532 0.4541,2.90625 0.24219,1.21094 0.48438,2.08887 0.24219,0.84766 0.4541,1.42285 0.24219,0.54492 0.4541,0.90821 V 342 h -7.6289 v -0.12109 q 0.15136,-0.33301 0.27246,-1.08985 0.15136,-0.75683 0.15136,-1.8164 0,-0.39356 -0.0303,-0.78711 -0.0303,-0.42383 -0.0908,-0.90821 l -3.84473,-29.00195 -17.86132,33.60352 -2.08887,-0.24219 -17.98242,-33.66406 q -1.05957,7.1748 -1.84668,13.25976 -0.33301,2.60352 -0.66602,5.20703 -0.33301,2.57325 -0.60547,4.81348 -0.24219,2.24023 -0.39355,3.96582 -0.15137,1.69531 -0.15137,2.5127 0,1.02929 0.0605,1.8164 0.0605,0.78711 0.12109,1.33203 0.0908,0.63574 0.18164,1.12012 h -6.05469 z"
       id="path34" />
    <path
       d="m 209.27686,298.58789 q 3.78418,0 7.50781,-0.0303 3.7539,-0.0303 6.87207,-0.0605 3.11816,-0.0606 5.32812,-0.15137 2.20996,-0.0908 2.99707,-0.24218 l -1.48339,4.02636 q -0.99903,-0.27246 -2.33106,-0.48437 -1.15039,-0.18164 -2.81543,-0.33301 -1.63476,-0.18164 -3.78418,-0.18164 -0.72656,0 -1.75586,0.0606 -0.99902,0.0303 -1.9375,0.0908 -1.08984,0.0605 -2.20996,0.12109 v 16.5293 q 3.11816,-0.0303 5.63086,-0.18164 2.5127,-0.15137 4.26855,-0.30274 2.0586,-0.18164 3.63282,-0.42383 l -0.93848,4.38965 q -2.08887,-0.27246 -4.26855,-0.51465 -1.87696,-0.21191 -4.08692,-0.36328 -2.20996,-0.18164 -4.23828,-0.18164 v 18.98145 q 3.57227,0 6.56934,-0.30274 2.99707,-0.30273 5.2373,-0.69629 2.60352,-0.42382 4.75293,-0.99902 l -0.87793,4.9043 q -0.36328,-0.0303 -1.08984,-0.0605 -0.72656,-0.0303 -1.63477,-0.0606 -0.87793,-0.0303 -1.87695,-0.0605 -0.96875,0 -1.84668,-0.0303 -0.87793,0 -1.57422,-0.0303 -0.66602,0 -0.96875,0 h -13.07812 v -0.12109 q 0.18164,-0.63575 0.333,-1.57422 0.18164,-0.93848 0.30274,-2.33106 0.12109,-1.39258 0.18164,-3.2998 0.0605,-1.9375 0.0605,-4.51074 v -19.70801 q 0,-2.57324 -0.0605,-4.48047 -0.0606,-1.9375 -0.18164,-3.33008 -0.1211,-1.42285 -0.30274,-2.36133 -0.15136,-0.93847 -0.333,-1.57422 v -0.12109 z"
       id="path36" />
    <path
       d="m 262.05908,339.33594 q 3.57227,0 6.56934,-0.30274 2.99707,-0.30273 5.2373,-0.69629 2.60352,-0.42382 4.75293,-0.99902 l -0.87793,4.9043 q -0.36328,-0.0303 -1.08984,-0.0605 -0.72656,-0.0303 -1.63477,-0.0606 -0.87793,-0.0303 -1.87695,-0.0605 -0.96875,0 -1.84668,-0.0303 -0.87793,0 -1.57422,-0.0303 -0.66601,0 -0.96875,0 h -13.07812 v -0.12109 q 0.18164,-0.63575 0.333,-1.57422 0.18165,-0.93848 0.30274,-2.33106 0.12109,-1.39258 0.18164,-3.2998 0.0606,-1.9375 0.0606,-4.51074 v -19.70801 q 0,-2.57324 -0.0606,-4.48047 -0.0605,-1.9375 -0.18164,-3.33008 -0.12109,-1.42285 -0.30274,-2.36133 -0.15136,-0.93847 -0.333,-1.57422 v -0.12109 h 7.26562 v 0.12109 q -0.18164,0.63575 -0.36328,1.57422 -0.15137,0.93848 -0.27246,2.36133 -0.0908,1.39258 -0.18164,3.33008 -0.0605,1.90723 -0.0605,4.48047 z"
       id="path38" />
    <path
       d="m 300.46143,341.87891 q 0.18164,-0.63575 0.333,-1.57422 0.15137,-0.93848 0.27246,-2.33106 0.1211,-1.39258 0.18165,-3.2998 0.0605,-1.9375 0.0605,-4.51074 v -19.70801 q 0,-2.57324 -0.0605,-4.48047 -0.0605,-1.9375 -0.18165,-3.33008 -0.12109,-1.42285 -0.27246,-2.36133 -0.15136,-0.93847 -0.333,-1.57422 v -0.12109 h 7.23535 v 0.12109 q -0.18164,0.63575 -0.36328,1.57422 -0.15137,0.93848 -0.27246,2.36133 -0.0908,1.39258 -0.18165,3.33008 -0.0605,1.90723 -0.0605,4.48047 v 19.70801 q 0,2.57324 0.0605,4.51074 0.0908,1.90722 0.18165,3.2998 0.12109,1.39258 0.27246,2.33106 0.18164,0.93847 0.36328,1.57422 V 342 h -7.23535 z"
       id="path40" />
    <path
       d="m 350.73096,305.49023 h -0.66602 q -0.24219,-0.69628 -0.78711,-1.57421 -0.51465,-0.87793 -1.39258,-1.63477 -0.84765,-0.78711 -2.08886,-1.30176 -1.21094,-0.51465 -2.87598,-0.51465 -1.4834,0 -2.63379,0.45411 -1.15039,0.4541 -1.9375,1.27148 -0.75683,0.81738 -1.15039,1.9375 -0.39355,1.12012 -0.39355,2.48242 0,2.17969 1.21093,4.17774 1.24121,1.96777 3.08789,3.90527 1.84668,1.9375 3.9961,3.875 2.14941,1.9375 3.99609,4.02637 1.84668,2.08886 3.05762,4.38964 1.24121,2.27051 1.24121,4.9043 0,1.96778 -0.69629,3.96582 -0.66602,1.96778 -2.08887,3.54199 -1.42285,1.57422 -3.66308,2.57325 -2.24024,0.96875 -5.32813,0.96875 -1.72558,0 -3.2998,-0.33301 -1.54395,-0.30274 -2.87598,-0.75684 -1.30176,-0.48437 -2.36133,-1.02929 -1.02929,-0.54493 -1.69531,-0.99903 l 0.69629,-6.69043 h 0.75684 q 0.333,1.42285 1.08984,2.72461 0.75684,1.27149 1.84668,2.27051 1.12012,0.96875 2.54297,1.57422 1.42285,0.57519 3.11816,0.57519 1.54395,0 2.75488,-0.4541 1.24122,-0.48437 2.11915,-1.30176 0.87792,-0.84765 1.33203,-1.99804 0.48437,-1.15039 0.48437,-2.5127 0,-1.90722 -0.69629,-3.51172 -0.69629,-1.63476 -1.84668,-3.08789 -1.12011,-1.45312 -2.57324,-2.81543 -1.42285,-1.3623 -2.93652,-2.72461 -1.51367,-1.39257 -2.9668,-2.8457 -1.42285,-1.45312 -2.57324,-3.08789 -1.12012,-1.66504 -1.81641,-3.54199 -0.69629,-1.90723 -0.69629,-4.17774 0,-2.3916 0.90821,-4.29882 0.93847,-1.9375 2.45214,-3.29981 1.54395,-1.3623 3.48145,-2.08887 1.9375,-0.72656 3.99609,-0.72656 1.51368,0 2.78516,0.24219 1.27148,0.24219 2.27051,0.57519 1.02929,0.33301 1.78613,0.66602 0.75684,0.33301 1.24121,0.54492 z"
       id="path42" />
    <path
       d="m 394.34033,305.49023 h -0.66601 q -0.24219,-0.69628 -0.78711,-1.57421 -0.51465,-0.87793 -1.39258,-1.63477 -0.84766,-0.78711 -2.08887,-1.30176 -1.21094,-0.51465 -2.87597,-0.51465 -1.4834,0 -2.63379,0.45411 -1.15039,0.4541 -1.9375,1.27148 -0.75684,0.81738 -1.15039,1.9375 -0.39356,1.12012 -0.39356,2.48242 0,2.17969 1.21094,4.17774 1.24121,1.96777 3.08789,3.90527 1.84668,1.9375 3.99609,3.875 2.14942,1.9375 3.9961,4.02637 1.84668,2.08886 3.05761,4.38964 1.24121,2.27051 1.24121,4.9043 0,1.96778 -0.69628,3.96582 -0.66602,1.96778 -2.08887,3.54199 -1.42285,1.57422 -3.66309,2.57325 -2.24023,0.96875 -5.32812,0.96875 -1.72559,0 -3.29981,-0.33301 -1.54394,-0.30274 -2.87597,-0.75684 -1.30176,-0.48437 -2.36133,-1.02929 -1.0293,-0.54493 -1.69531,-0.99903 l 0.69628,-6.69043 h 0.75684 q 0.33301,1.42285 1.08984,2.72461 0.75684,1.27149 1.84668,2.27051 1.12012,0.96875 2.54297,1.57422 1.42285,0.57519 3.11817,0.57519 1.54394,0 2.75488,-0.4541 1.24121,-0.48437 2.11914,-1.30176 0.87793,-0.84765 1.33203,-1.99804 0.48438,-1.15039 0.48438,-2.5127 0,-1.90722 -0.69629,-3.51172 -0.69629,-1.63476 -1.84668,-3.08789 -1.12012,-1.45312 -2.57324,-2.81543 -1.42286,-1.3623 -2.93653,-2.72461 -1.51367,-1.39257 -2.96679,-2.8457 -1.42286,-1.45312 -2.57325,-3.08789 -1.12011,-1.66504 -1.8164,-3.54199 -0.69629,-1.90723 -0.69629,-4.17774 0,-2.3916 0.9082,-4.29882 0.93848,-1.9375 2.45215,-3.29981 1.54394,-1.3623 3.48144,-2.08887 1.9375,-0.72656 3.9961,-0.72656 1.51367,0 2.78515,0.24219 1.27149,0.24219 2.27051,0.57519 1.0293,0.33301 1.78614,0.66602 0.75683,0.33301 1.24121,0.54492 z"
       id="path44" />
    <path
       d="m 450.48291,342 v -0.12109 q 0.0605,-0.15137 0.0908,-0.45411 0.0303,-0.30273 0.0303,-0.54492 0,-0.93847 -0.27246,-2.05859 -0.24218,-1.15039 -0.96875,-2.8457 l -3.66308,-8.23438 q -1.69532,-0.0606 -4.51075,-0.0606 -2.81542,0 -6.08496,0 -2.3916,0 -4.63183,0 -2.20996,0 -3.9961,0.0606 l -3.48144,7.99219 q -0.4541,1.12012 -0.96875,2.45215 -0.51465,1.33203 -0.51465,2.69433 0,0.39356 0.0605,0.66602 0.0605,0.24219 0.12109,0.33301 V 342 h -6.17578 v -0.12109 q 0.54492,-0.5752 1.3623,-2.02832 0.81739,-1.4834 1.78614,-3.69336 l 17.34668,-38.47754 h 2.42187 l 16.43848,36.99414 q 0.57519,1.30176 1.18066,2.54297 0.63574,1.21093 1.18067,2.17968 0.54492,0.96875 0.96875,1.63477 0.42382,0.66602 0.57519,0.84766 V 342 Z m -19.61719,-16.92285 q 1.75586,0 3.60254,0 1.84668,-0.0303 3.60254,-0.0303 1.78613,-0.0303 3.4209,-0.0303 1.63476,-0.0303 2.9668,-0.0605 l -8.50684,-19.22363 -8.35547,19.34473 z"
       id="path46" />
  </g>
  <g
     aria-label="PRODUCTIONS"
     id="text28"
     style="font-size:19px;font-family:Marcellus;letter-spacing:15;text-anchor:middle;fill:#8a8a8a">
    <path
       d="m 155.49951,382.10889 q 0.90918,0.16699 1.66065,0.0371 0.76074,-0.13916 1.29882,-0.5752 0.54737,-0.44531 0.84424,-1.19678 0.30615,-0.75146 0.30615,-1.83691 0,-0.75147 -0.15771,-1.36377 -0.15771,-0.62158 -0.47314,-1.04834 -0.30616,-0.43604 -0.7793,-0.66797 -0.47315,-0.24121 -1.10401,-0.24121 -0.39892,0 -0.6958,0.0371 -0.29687,0.0278 -0.50097,0.0649 -0.24121,0.0464 -0.39893,0.10205 z m -1.95752,-7.4126 q 0.18555,0.0186 0.38965,0.0371 0.17627,0.0186 0.38965,0.0278 0.22266,0 0.45459,0 0.36182,0 0.97412,-0.0835 0.62158,-0.0928 1.57715,-0.0928 0.89062,0 1.64209,0.25977 0.76074,0.25976 1.31738,0.76074 0.55664,0.50098 0.86279,1.22461 0.31543,0.71435 0.31543,1.63281 0,1.23389 -0.4917,2.13379 -0.49169,0.8999 -1.31738,1.45654 -0.82568,0.55664 -1.90185,0.76074 -1.07618,0.19483 -2.2544,0.0186 v 1.54004 q 0,0.78857 0.0186,1.38232 0.0278,0.58448 0.0557,1.01123 0.0371,0.42676 0.0835,0.71436 0.0557,0.2876 0.11132,0.48242 V 388 h -2.22656 v -0.0371 q 0.0557,-0.19482 0.10205,-0.48242 0.0557,-0.2876 0.0928,-0.71436 0.0371,-0.42675 0.0557,-1.01123 0.0186,-0.59375 0.0186,-1.38232 v -6.03955 q 0,-0.78858 -0.0186,-1.37305 -0.0186,-0.59375 -0.0557,-1.02051 -0.0371,-0.43603 -0.0928,-0.72363 -0.0464,-0.2876 -0.10205,-0.48242 z"
       id="path49" />
    <path
       d="m 180.23145,384.37256 q 0,0.78857 0.0186,1.38232 0.0278,0.58448 0.0557,1.01123 0.0371,0.42676 0.0835,0.71436 0.0557,0.2876 0.11133,0.48242 V 388 h -2.22656 v -0.0371 q 0.0557,-0.19482 0.10205,-0.48242 0.0557,-0.2876 0.0835,-0.71436 0.0371,-0.42675 0.0557,-1.01123 0.0278,-0.58447 0.0278,-1.38232 v -6.03955 q 0,-0.78858 -0.0278,-1.37305 -0.0186,-0.59375 -0.0557,-1.02051 -0.0278,-0.42675 -0.0835,-0.71435 -0.0464,-0.29688 -0.10205,-0.4917 v -0.0371 l 0.38964,0.0371 q 0.17627,0.0186 0.38965,0.0278 0.22266,0 0.45459,0 0.36182,0 0.97412,-0.0835 0.62159,-0.0928 1.57715,-0.0928 0.89063,0 1.64209,0.24121 0.76074,0.24121 1.31738,0.70508 0.55665,0.46387 0.8628,1.14111 0.31543,0.66797 0.31543,1.52149 0,0.66797 -0.17627,1.24316 -0.16699,0.56592 -0.48242,1.02979 -0.30616,0.46386 -0.74219,0.82568 -0.43604,0.35254 -0.97412,0.59375 l 3.25634,4.57373 q 0.24122,0.34326 0.44532,0.59375 0.21338,0.25049 0.39892,0.43604 0.19483,0.17627 0.3711,0.29687 0.17627,0.11133 0.36181,0.17627 V 388 h -2.68115 q -0.0278,-0.17627 -0.18555,-0.46387 -0.14843,-0.29687 -0.35253,-0.58447 l -3.28418,-4.62939 q -0.21338,0.0186 -0.42676,0.0371 -0.21338,0.009 -0.43604,0.009 -0.25976,0 -0.52881,-0.0186 -0.25976,-0.0186 -0.5288,-0.0649 z m 0,-2.81104 q 0.25048,0.0557 0.51025,0.0835 0.25976,0.0186 0.50098,0.0186 0.6958,0 1.27099,-0.2041 0.5752,-0.21338 0.97412,-0.64013 0.40821,-0.42676 0.63086,-1.05762 0.22266,-0.64014 0.22266,-1.49365 0,-0.6958 -0.15772,-1.26172 -0.15771,-0.56592 -0.47314,-0.95557 -0.30615,-0.39892 -0.7793,-0.6123 -0.47314,-0.22266 -1.104,-0.22266 -0.64014,0 -1.02051,0.0649 -0.38037,0.0649 -0.57519,0.13916 z"
       id="path51" />
    <path
       d="m 210.56689,374.47363 q 1.54932,0 2.85743,0.51026 1.31738,0.50097 2.27295,1.41943 0.95556,0.90918 1.49365,2.18945 0.53808,1.28028 0.53808,2.82959 0,0.88135 -0.2041,1.73487 -0.2041,0.85351 -0.60303,1.61425 -0.38964,0.76075 -0.96484,1.41016 -0.57519,0.64014 -1.31738,1.11328 -0.73291,0.46387 -1.62354,0.72363 -0.89062,0.26905 -1.92041,0.26905 -1.54931,0 -2.8667,-0.4917 -1.3081,-0.50098 -2.26367,-1.41016 -0.95556,-0.90918 -1.49365,-2.18017 -0.53809,-1.28028 -0.53809,-2.83887 0,-0.88135 0.20411,-1.73486 0.2041,-0.85352 0.59375,-1.62354 0.39892,-0.77002 0.96484,-1.41016 0.57519,-0.64941 1.3081,-1.12255 0.74219,-0.47315 1.63282,-0.73291 0.8999,-0.26905 1.92968,-0.26905 z m 0.52881,12.97901 q 1.02979,0 1.8833,-0.3711 0.85352,-0.37109 1.46582,-1.07617 0.62159,-0.70508 0.96485,-1.71631 0.34326,-1.02051 0.34326,-2.31006 0,-1.42871 -0.33398,-2.64404 -0.32471,-1.22461 -0.97413,-2.11523 -0.64941,-0.89991 -1.62353,-1.40088 -0.96484,-0.51026 -2.2544,-0.51026 -1.02978,0 -1.8833,0.3711 -0.85351,0.36181 -1.47509,1.05761 -0.61231,0.69581 -0.95557,1.70704 -0.34326,1.01123 -0.34326,2.30078 0,1.41943 0.3247,2.65332 0.32471,1.22461 0.97413,2.12451 0.64941,0.8999 1.62353,1.41943 0.97412,0.51026 2.26367,0.51026 z"
       id="path53" />
    <path
       d="m 236.84814,375.49414 q -0.0186,1.03906 -0.0371,2.01318 -0.009,0.41748 -0.0186,0.85352 0,0.43603 -0.009,0.86279 0,0.41748 -0.009,0.80713 0,0.38037 0,0.67725 0,0.62158 0.009,1.50293 0.009,0.88135 0.0186,1.80908 0.0186,0.92773 0.0464,1.78125 0.0278,0.85352 0.065,1.41943 0.12988,0.0186 0.34326,0.0464 0.22265,0.0186 0.46386,0.0371 0.24122,0.009 0.47315,0.0186 0.23193,0.009 0.38965,0.009 0.64941,0 1.32666,-0.0835 0.68652,-0.0928 1.31738,-0.33399 0.64014,-0.24121 1.19678,-0.65869 0.56592,-0.42676 0.9834,-1.09473 0.42675,-0.66797 0.66797,-1.60498 0.24121,-0.94629 0.24121,-2.22656 0,-1.41943 -0.34327,-2.52344 -0.34326,-1.11328 -1.01123,-1.87402 -0.65869,-0.76074 -1.64209,-1.15039 -0.97412,-0.39893 -2.24511,-0.39893 -0.25049,0 -0.56592,0.0186 -0.31543,0.009 -0.63086,0.0278 -0.30615,0.009 -0.58447,0.0371 -0.26905,0.0186 -0.44532,0.0278 z m -2.03173,-0.83496 q 0.21338,0.009 0.39892,0.0186 0.15772,0.009 0.32471,0.0186 0.16699,0 0.26904,0 0.17627,0 0.58447,-0.0186 0.41749,-0.0186 0.94629,-0.0371 0.52881,-0.0186 1.09473,-0.0371 0.5752,-0.0186 1.07617,-0.0186 1.34522,0 2.56055,0.33399 1.21533,0.33398 2.13379,1.09472 0.91846,0.76074 1.45654,1.99463 0.53809,1.23389 0.53809,3.03369 0,1.28955 -0.2876,2.31934 -0.27832,1.02978 -0.78857,1.81836 -0.51026,0.78857 -1.22461,1.35449 -0.70508,0.55664 -1.56788,0.91846 -0.85351,0.36181 -1.82763,0.52881 -0.97412,0.16699 -2.01319,0.16699 -0.37109,0 -0.8999,-0.0278 -0.51953,-0.0186 -1.04834,-0.0464 -0.52881,-0.0278 -1.00195,-0.0557 Q 235.07617,388 234.81641,388 v -0.0371 q 0.0557,-0.19482 0.10205,-0.48242 0.0557,-0.2876 0.0928,-0.71436 0.0371,-0.42675 0.0557,-1.01123 0.0186,-0.59375 0.0186,-1.38232 v -6.03955 q 0,-0.78858 -0.0186,-1.38233 -0.0186,-0.60302 -0.0557,-1.02978 -0.0371,-0.43604 -0.0928,-0.73291 -0.0464,-0.29688 -0.10205,-0.4917 z"
       id="path55" />
    <path
       d="m 272.89844,378.33301 q 0,-0.78858 -0.0186,-1.37305 -0.0186,-0.59375 -0.0557,-1.02051 -0.0371,-0.43603 -0.0835,-0.72363 -0.0464,-0.2876 -0.10205,-0.48242 v -0.0371 h 1.65137 v 0.0371 q -0.0557,0.19482 -0.11133,0.48242 -0.0464,0.2876 -0.0835,0.72363 -0.0278,0.42676 -0.0557,1.02051 -0.0186,0.58447 -0.0186,1.37305 v 5.00976 q 0,1.32666 -0.38038,2.26368 -0.38037,0.93701 -1.05761,1.54003 -0.67725,0.59375 -1.62354,0.8628 -0.94629,0.27832 -2.06885,0.27832 -1.12255,0 -2.09667,-0.25977 -0.96485,-0.25976 -1.68848,-0.83496 -0.71436,-0.58447 -1.12256,-1.50293 -0.4082,-0.92773 -0.4082,-2.25439 v -5.10254 q 0,-0.78858 -0.0186,-1.37305 -0.0186,-0.59375 -0.0557,-1.02051 -0.0371,-0.43603 -0.0928,-0.72363 -0.0464,-0.2876 -0.10205,-0.48242 v -0.0371 h 2.22657 v 0.0371 q -0.0557,0.19482 -0.11133,0.48242 -0.0464,0.2876 -0.0835,0.72363 -0.0371,0.42676 -0.0557,1.02051 -0.0186,0.58447 -0.0186,1.37305 v 5.20459 q 0,1.104 0.32471,1.82763 0.33398,0.71436 0.87207,1.14112 0.53809,0.41748 1.22461,0.58447 0.68652,0.16699 1.40088,0.16699 0.71435,0 1.40088,-0.16699 0.68652,-0.16699 1.21533,-0.58447 0.53809,-0.42676 0.86279,-1.14112 0.33399,-0.72363 0.33399,-1.82763 z"
       id="path57" />
    <path
       d="m 302.63086,376.7373 -0.0835,0.0371 q -0.72363,-0.66796 -1.74414,-1.06689 -1.01123,-0.39893 -2.22656,-0.39893 -1.16895,0 -2.14307,0.3711 -0.97412,0.36181 -1.6792,1.05761 -0.6958,0.69581 -1.08544,1.70704 -0.38965,1.01123 -0.38965,2.30078 0,1.41943 0.37109,2.65332 0.37109,1.22461 1.104,2.12451 0.73291,0.8999 1.82764,1.41943 1.10401,0.51026 2.56983,0.51026 0.5288,0 1.05761,-0.11133 0.52881,-0.11133 1.01123,-0.32471 0.4917,-0.22265 0.91846,-0.52881 0.43604,-0.31543 0.78857,-0.71435 l 0.10206,0.0649 -0.74219,1.89258 q -0.6958,0.26904 -1.54004,0.4082 -0.83496,0.14844 -1.68848,0.14844 -1.71631,0 -3.14502,-0.4917 -1.41943,-0.50098 -2.44922,-1.41016 -1.0205,-0.90918 -1.5957,-2.18017 -0.56592,-1.28028 -0.56592,-2.83887 0,-0.88135 0.22266,-1.73486 0.23193,-0.85352 0.66797,-1.62354 0.43603,-0.77002 1.07617,-1.41016 0.64014,-0.64941 1.45654,-1.12255 0.82569,-0.47315 1.80908,-0.73291 0.99268,-0.26905 2.14307,-0.26905 1.79053,0 3.32129,0.54737 z"
       id="path59" />
    <path
       d="m 323.2251,375.5127 q -1.09473,0 -1.97608,0.10205 -0.88134,0.0928 -1.52148,0.2041 -0.74219,0.13916 -1.32666,0.30615 l 0.26904,-1.50293 q 0.11133,0.009 0.33399,0.0186 0.22265,0.009 0.4917,0.0186 0.27832,0.009 0.57519,0.0186 0.30615,0 0.5752,0.009 0.26904,0 0.47314,0.009 0.21338,0 0.30615,0 h 5.29737 q 0.0928,0 0.29687,0 0.21338,-0.009 0.48242,-0.009 0.26905,-0.009 0.56592,-0.009 0.30615,-0.009 0.5752,-0.0186 0.27832,-0.009 0.50097,-0.0186 0.22266,-0.009 0.33399,-0.0186 l 0.26904,1.50293 q -0.59375,-0.16699 -1.33594,-0.30615 -0.64013,-0.11133 -1.52148,-0.2041 -0.88135,-0.10205 -1.97608,-0.10205 v 8.85986 q 0,0.78857 0.0186,1.38232 0.0278,0.58448 0.0557,1.01123 0.0371,0.42676 0.0835,0.71436 0.0557,0.2876 0.11133,0.48242 V 388 h -2.21729 v -0.0371 q 0.0557,-0.19482 0.10205,-0.48242 0.0464,-0.2876 0.0835,-0.71436 0.0371,-0.42675 0.0557,-1.01123 0.0186,-0.59375 0.0186,-1.38232 z"
       id="path61" />
    <path
       d="m 346.15723,387.96289 q 0.0557,-0.19482 0.10205,-0.48242 0.0464,-0.2876 0.0835,-0.71436 0.0371,-0.42675 0.0557,-1.01123 0.0186,-0.59375 0.0186,-1.38232 v -6.03955 q 0,-0.78858 -0.0186,-1.37305 -0.0186,-0.59375 -0.0557,-1.02051 -0.0371,-0.43603 -0.0835,-0.72363 -0.0464,-0.2876 -0.10205,-0.48242 v -0.0371 h 2.21728 v 0.0371 q -0.0557,0.19482 -0.11133,0.48242 -0.0464,0.2876 -0.0835,0.72363 -0.0278,0.42676 -0.0557,1.02051 -0.0185,0.58447 -0.0185,1.37305 v 6.03955 q 0,0.78857 0.0185,1.38232 0.0278,0.58448 0.0557,1.01123 0.0371,0.42676 0.0835,0.71436 0.0557,0.2876 0.11133,0.48242 V 388 h -2.21728 z"
       id="path63" />
    <path
       d="m 372.17871,374.47363 q 1.54932,0 2.85742,0.51026 1.31739,0.50097 2.27295,1.41943 0.95557,0.90918 1.49365,2.18945 0.53809,1.28028 0.53809,2.82959 0,0.88135 -0.2041,1.73487 -0.2041,0.85351 -0.60303,1.61425 -0.38965,0.76075 -0.96484,1.41016 -0.5752,0.64014 -1.31739,1.11328 -0.73291,0.46387 -1.62353,0.72363 -0.89063,0.26905 -1.92041,0.26905 -1.54932,0 -2.8667,-0.4917 -1.30811,-0.50098 -2.26367,-1.41016 -0.95557,-0.90918 -1.49365,-2.18017 -0.53809,-1.28028 -0.53809,-2.83887 0,-0.88135 0.2041,-1.73486 0.2041,-0.85352 0.59375,-1.62354 0.39893,-0.77002 0.96485,-1.41016 0.57519,-0.64941 1.3081,-1.12255 0.74219,-0.47315 1.63281,-0.73291 0.89991,-0.26905 1.92969,-0.26905 z m 0.52881,12.97901 q 1.02978,0 1.8833,-0.3711 0.85352,-0.37109 1.46582,-1.07617 0.62158,-0.70508 0.96484,-1.71631 0.34327,-1.02051 0.34327,-2.31006 0,-1.42871 -0.33399,-2.64404 -0.32471,-1.22461 -0.97412,-2.11523 -0.64941,-0.89991 -1.62353,-1.40088 -0.96485,-0.51026 -2.2544,-0.51026 -1.02978,0 -1.8833,0.3711 -0.85352,0.36181 -1.4751,1.05761 -0.6123,0.69581 -0.95556,1.70704 -0.34327,1.01123 -0.34327,2.30078 0,1.41943 0.32471,2.65332 0.32471,1.22461 0.97412,2.12451 0.64942,0.8999 1.62354,1.41943 0.97412,0.51026 2.26367,0.51026 z"
       id="path65" />
    <path
       d="m 396.94775,374.69629 9.55567,10.16797 v -6.53125 q 0,-0.78858 -0.0186,-1.37305 -0.0186,-0.59375 -0.0557,-1.02051 -0.0371,-0.43603 -0.0928,-0.72363 -0.0464,-0.2876 -0.10206,-0.48242 v -0.0371 h 1.65137 v 0.0371 q -0.0557,0.19482 -0.10205,0.48242 -0.0464,0.2876 -0.0835,0.72363 -0.0371,0.42676 -0.0557,1.02051 -0.0185,0.58447 -0.0185,1.37305 v 9.85254 h -0.32471 l -9.55566,-10.15869 v 6.3457 q 0,0.78857 0.0186,1.38232 0.0186,0.58448 0.0557,1.01123 0.0371,0.42676 0.0835,0.71436 0.0464,0.2876 0.10205,0.48242 V 388 H 396.354 v -0.0371 q 0.0557,-0.19482 0.10205,-0.48242 0.0557,-0.2876 0.0928,-0.71436 0.0371,-0.42675 0.0557,-1.01123 0.0186,-0.59375 0.0186,-1.38232 v -6.03955 q 0,-0.78858 -0.0186,-1.37305 -0.0186,-0.59375 -0.0557,-1.02051 -0.0371,-0.43603 -0.0928,-0.72363 -0.0464,-0.2876 -0.10205,-0.48242 v -0.0371 z"
       id="path67" />
    <path
       d="m 431.0127,376.81152 h -0.20411 q -0.0742,-0.21338 -0.24121,-0.48242 -0.15771,-0.26904 -0.42676,-0.50098 -0.25976,-0.24121 -0.64013,-0.39892 -0.3711,-0.15772 -0.88135,-0.15772 -0.45459,0 -0.80713,0.13916 -0.35254,0.13916 -0.59375,0.38965 -0.23193,0.25049 -0.35254,0.59375 -0.1206,0.34326 -0.1206,0.76075 0,0.66796 0.37109,1.28027 0.38037,0.60303 0.94629,1.19678 0.56592,0.59375 1.22461,1.1875 0.65869,0.59375 1.22461,1.23388 0.56592,0.64014 0.93701,1.34522 0.38037,0.6958 0.38037,1.50293 0,0.60302 -0.21338,1.21533 -0.2041,0.60303 -0.64013,1.08545 -0.43604,0.48242 -1.12256,0.78857 -0.68653,0.29688 -1.63282,0.29688 -0.5288,0 -1.01123,-0.10205 -0.47314,-0.0928 -0.88134,-0.23194 -0.39893,-0.14843 -0.72364,-0.31543 -0.31543,-0.16699 -0.51953,-0.30615 l 0.21338,-2.05029 h 0.23194 q 0.10205,0.43603 0.33398,0.83496 0.23193,0.38965 0.56592,0.6958 0.34326,0.29687 0.77929,0.48242 0.43604,0.17627 0.95557,0.17627 0.47315,0 0.84424,-0.13916 0.38037,-0.14844 0.64941,-0.39892 0.26905,-0.25977 0.40821,-0.61231 0.14843,-0.35254 0.14843,-0.77002 0,-0.58447 -0.21338,-1.07617 -0.21337,-0.50098 -0.56591,-0.94629 -0.34326,-0.44531 -0.78858,-0.86279 -0.43603,-0.41748 -0.8999,-0.83496 -0.46387,-0.42676 -0.90918,-0.87207 -0.43603,-0.44532 -0.78857,-0.94629 -0.34327,-0.51026 -0.55664,-1.08545 -0.21338,-0.58447 -0.21338,-1.28028 0,-0.73291 0.27832,-1.31738 0.28759,-0.59375 0.75146,-1.01123 0.47315,-0.41748 1.0669,-0.64014 0.59375,-0.22265 1.22461,-0.22265 0.46386,0 0.85351,0.0742 0.38965,0.0742 0.6958,0.17627 0.31543,0.10205 0.54737,0.2041 0.23193,0.10205 0.38037,0.16699 z"
       id="path69" />
  </g>
</svg>
